<svg xmlns="http://www.w3.org/2000/svg" width="48" height="20">

  <circle cx="-4" cy="10" stroke-width="2" r="20" fill="white" stroke="black" />
  <circle cx="-4" cy="10" stroke-width="2" r="16" fill="white" stroke="black" />
  <circle cx="-4" cy="10" stroke-width="2" r="12" fill="white" stroke="black" />
  <circle cx="-4" cy="10" stroke-width="2" r="8" fill="white" stroke="black" />
  <circle cx="-4" cy="10" stroke-width="2" r="4" fill="white" stroke="black" />

  <circle cx="44" cy="10" stroke-width="2" r="20" fill="white" stroke="black" />
  <circle cx="44" cy="10" stroke-width="2" r="16" fill="white" stroke="black" />
  <circle cx="44" cy="10" stroke-width="2" r="12" fill="white" stroke="black" />
  <circle cx="44" cy="10" stroke-width="2" r="8" fill="white" stroke="black" />
  <circle cx="44" cy="10" stroke-width="2" r="4" fill="white" stroke="black" />

  <circle cx="20" cy="20" stroke-width="2" r="20" fill="white" stroke="black" />
  <circle cx="20" cy="20" stroke-width="2" r="16" fill="white" stroke="black" />
  <circle cx="20" cy="20" stroke-width="2" r="12" fill="white" stroke="black" />
  <circle cx="20" cy="20" stroke-width="2" r="8" fill="white" stroke="black" />
  <circle cx="20" cy="20" stroke-width="2" r="4" fill="white" stroke="black" />

  <circle cx="-4" cy="30" stroke-width="2" r="20" fill="white" stroke="black" />
  <circle cx="-4" cy="30" stroke-width="2" r="16" fill="white" stroke="black" />
  <circle cx="-4" cy="30" stroke-width="2" r="12" fill="white" stroke="black" />
  <circle cx="-4" cy="30" stroke-width="2" r="8" fill="white" stroke="black" />
  <circle cx="-4" cy="30" stroke-width="2" r="4" fill="white" stroke="black" />

  <circle cx="44" cy="30" stroke-width="2" r="20" fill="white" stroke="black" />
  <circle cx="44" cy="30" stroke-width="2" r="16" fill="white" stroke="black" />
  <circle cx="44" cy="30" stroke-width="2" r="12" fill="white" stroke="black" />
  <circle cx="44" cy="30" stroke-width="2" r="8" fill="white" stroke="black" />
  <circle cx="44" cy="30" stroke-width="2" r="4" fill="white" stroke="black" />

  <circle cx="20" cy="40" stroke-width="2" r="20" fill="white" stroke="black" />
  <circle cx="20" cy="40" stroke-width="2" r="16" fill="white" stroke="black" />
  <circle cx="20" cy="40" stroke-width="2" r="12" fill="white" stroke="black" />
  <circle cx="20" cy="40" stroke-width="2" r="8" fill="white" stroke="black" />
  <circle cx="20" cy="40" stroke-width="2" r="4" fill="white" stroke="black" />
</svg>